PathFileType	4	(X/Y/Z)	c:/Users/goper/Files/vsCode/490R/osim_files/C12/C12_Fast_03.trc
DataRate	CameraRate	NumFrames	NumMarkers	Units                	OrigDataRate	OrigDataStartFrame	OrigNumFrames
120.00	120.00	4	36	mm	120.0	748	1196
                Frame#	Time	LPSIS			LASIS			LTH1			LTH2			LTH3			LTH4			LLFE			LMFE			LSH1			LSH2			LSH3			LSH4			LLMAL			LMMAL			LCAL			LMTP5			LTOE			LMTP1			RPSIS			RASIS			RTH1			RTH2			RTH3			RTH4			RLFE			RMFE			RSH1			RSH2			RSH3			RSH4			RLMAL			RMMAL			RCAL			RMTP1			RTOE			RMTP5		
		X1	Y1	Z1	X2	Y2	Z2	X3	Y3	Z3	X4	Y4	Z4	X5	Y5	Z5	X6	Y6	Z6	X7	Y7	Z7	X8	Y8	Z8	X9	Y9	Z9	X10	Y10	Z10	X11	Y11	Z11	X12	Y12	Z12	X13	Y13	Z13	X14	Y14	Z14	X15	Y15	Z15	X16	Y16	Z16	X17	Y17	Z17	X18	Y18	Z18	X19	Y19	Z19	X20	Y20	Z20	X21	Y21	Z21	X22	Y22	Z22	X23	Y23	Z23	X24	Y24	Z24	X25	Y25	Z25	X26	Y26	Z26	X27	Y27	Z27	X28	Y28	Z28	X29	Y29	Z29	X30	Y30	Z30	X31	Y31	Z31	X32	Y32	Z32	X33	Y33	Z33	X34	Y34	Z34	X35	Y35	Z35	X36	Y36	Z36

748	6.22500	-2206.96680	1043.89575	326.24402	-2385.88452	1011.97998	375.25192	-2364.63550	720.48877	434.31909	-2382.05420	678.63782	428.37561	-2422.30591	742.30750	436.54126	-2433.54980	698.58765	432.19336	-2493.11450	536.55139	391.90237	-2490.54126	524.88666	262.90225	-2482.00122	432.39673	409.49185	-2505.47949	391.47003	418.37018	-2537.31519	457.48941	405.40851	-2552.27856	413.12161	412.56912	-2664.39185	134.41327	388.13019	-2674.09326	146.72334	308.88199	-2628.63574	79.42815	349.60852	-2810.71387	150.33119	412.86200	-2835.11621	207.98039	346.77322	-2828.87500	164.90300	307.29388	-2197.22339	1051.55212	214.65417	-2376.52246	1019.88501	121.09138	-2206.94556	754.20386	78.74609	-2199.60547	710.14471	89.36110	-2268.41162	736.85510	80.86272	-2251.19629	693.27423	90.27511	-2154.04175	537.50751	132.81393	-2156.34839	540.39948	264.13293	-2068.18530	456.98520	113.44624	-2058.98047	414.80151	108.86853	-2127.79028	435.42084	124.53336	-2108.93945	397.19852	117.15114	-1993.03992	132.64354	166.72632	-2006.94629	141.91200	248.78206	-1912.34229	111.25774	202.51450	-2113.22949	49.45670	248.96689	-2160.90259	64.08489	218.03821	-2123.88696	42.08134	142.12396
749	6.23333	-2219.54712	1040.91187	327.55734	-2400.04834	1008.77594	375.78018	-2377.81152	716.96423	436.67267	-2394.57104	674.48676	429.84808	-2434.84155	737.31891	437.12070	-2445.58032	693.75958	432.87073	-2507.13306	533.69189	391.92499	-2501.27856	521.54535	262.40445	-2498.55591	429.03601	410.00278	-2523.47559	388.70941	418.34839	-2552.58447	455.97049	405.46637	-2569.49951	412.02274	412.31415	-2690.22729	137.05507	385.97009	-2699.62939	149.92926	307.07352	-2656.15015	80.36608	346.87045	-2835.52515	157.86613	410.23401	-2857.44263	217.16606	344.58044	-2852.84277	174.18806	304.61310	-2210.50342	1048.70447	216.31734	-2386.27637	1015.73669	120.38570	-2217.29663	752.81213	79.47146	-2210.06763	708.66199	89.98295	-2277.96118	734.88666	81.37944	-2261.07642	691.61853	90.60704	-2162.63696	536.69562	133.02664	-2165.70752	539.00854	264.17697	-2075.53931	457.44052	113.67566	-2065.44067	415.54031	109.01843	-2134.58813	434.66760	124.60045	-2115.20264	396.96555	117.16010	-1994.66821	134.36118	166.52660	-2008.70422	143.41652	248.68654	-1913.67419	114.03503	202.29863	-2113.43335	49.43467	248.79239	-2161.36450	63.96031	218.02585	-2123.89355	42.04451	142.00900
750	6.24167	-2234.41772	1037.42004	329.84763	-2414.25195	1005.64111	376.24573	-2391.50171	713.74500	437.40283	-2407.52222	671.50415	430.29202	-2448.62817	733.82465	437.98438	-2459.20264	690.33521	433.69049	-2522.09863	531.34357	392.15082	-2512.75415	518.74268	262.37549	-2514.08057	425.99347	410.45596	-2540.40869	386.40710	418.74405	-2568.13623	454.19089	405.47177	-2585.88452	410.63669	411.82962	-2713.18481	138.49184	383.29788	-2722.78149	152.77023	304.31943	-2680.67334	80.63731	343.97806	-2857.67993	162.89809	407.63535	-2877.41528	224.38870	343.05487	-2874.27441	182.01945	302.43555	-2223.93066	1046.01172	218.13864	-2400.15430	1013.55646	121.12838	-2228.07007	751.39270	80.20802	-2220.58691	707.25018	90.66553	-2290.09546	733.58984	81.59657	-2271.46313	689.92017	91.05727	-2171.60474	535.71832	133.21199	-2175.68042	537.33472	264.17853	-2083.70532	457.84811	114.10027	-2072.50269	416.25983	109.14524	-2142.50098	434.12833	124.52914	-2121.89941	396.69550	117.19725	-1996.38489	136.24132	166.32147	-2010.41663	145.15379	248.45651	-1915.13098	117.18143	202.09558	-2113.71924	49.48445	248.66125	-2161.56787	63.83091	217.87515	-2124.07422	41.89842	141.84731
751	6.25000	-2248.45044	1034.32446	331.84140	-2428.08228	1002.17914	376.85712	-2407.11572	711.49023	438.28009	-2423.59790	669.46240	430.91272	-2464.09937	731.83167	438.77234	-2474.72852	688.22266	434.58801	-2537.45703	529.17950	391.66458	-2526.14990	517.08374	262.25497	-2530.45459	423.39572	410.47998	-2557.14355	383.90897	418.30649	-2583.94092	452.14328	404.85818	-2602.15283	408.79025	410.89691	-2733.24878	138.65947	380.65366	-2742.89722	154.32349	301.46936	-2701.98364	80.09330	341.25269	-2877.57178	166.13965	405.38864	-2895.73120	228.92474	341.56143	-2893.51562	186.83253	300.38147	-2237.46240	1043.44727	220.23444	-2411.91260	1010.41534	121.06725	-2239.35010	749.75995	80.86297	-2231.19922	705.87805	91.42023	-2301.02661	731.67279	81.93311	-2282.43799	688.07800	91.35912	-2181.34961	534.62695	133.36517	-2186.32959	535.45837	264.29080	-2092.20947	458.29370	114.24313	-2080.10010	416.96759	109.16164	-2150.43213	433.36008	124.55148	-2129.16211	396.45483	117.19293	-1998.42053	138.40059	165.91235	-2012.41040	147.06613	248.12527	-1916.77124	120.52618	201.64529	-2114.02466	49.52901	248.56874	-2161.73071	63.58317	217.84798	-2124.27490	41.71381	141.75153
